<svg width="107" height="80" fill="none" xmlns="http://www.w3.org/2000/svg"><path d="M53.121 42.361c-1.034.42-1.991.239-2.862-.286-1.005-.611-2.049-.706-3.178-.525-2.001.315-3.84 1.05-5.6 1.995.019.095.019.181.038.2 2.738 1.212 3.245 3.723 3.465 6.252.45 5.202-.89 10.098-2.93 14.823-1.416 3.273-3.082 6.423-5.484 9.105-.709.783-1.532 1.527-2.441 2.062-3.092 1.803-6.184.238-6.682-3.303-.393-2.787.22-5.469.91-8.132 1.416-5.507 3.541-10.747 6.059-15.844-1.302-1.107-1.494-2.1-.393-3.464.766-.955 1.81-1.69 2.68-2.558.48-.477.996-.974 1.283-1.566 2.767-5.774 5.782-11.396 9.458-16.664 1.857-2.663 4.06-4.992 6.376-7.216 1.139-1.088 2.125-1.212 3.015-.515.651.515.88 1.174.527 1.918a6.672 6.672 0 01-.986 1.518c-4.748 5.497-8.836 11.453-12.416 17.762-.182.315-.326.64-.594 1.155 1.187-.449 2.145-.83 3.121-1.165 1.599-.553 3.236-1.059 4.92-.496.69.23 1.36.659 1.896 1.155.842.783.976 1.794.412 3.045 1.024-.86 1.866-1.613 2.766-2.3 1.302-.984 2.71-1.785 4.384-1.986 2.642-.315 4.404 1.709 3.437 4.18-.536 1.375-1.474 2.606-2.307 3.847-2.058 3.074-4.767 5.326-8.31 6.548-.248.086-.65.458-.622.534.211.477.46 1.212.814 1.289.929.2 1.972.296 2.882.076 2.21-.525 3.905-1.985 5.494-3.512.881-.84 1.676-1.766 2.528-2.625a4.19 4.19 0 01.947-.745c.594-.324 1.178-.267 1.685.21.498.459.699 1.04.412 1.652-.316.677-.66 1.365-1.14 1.928-2.364 2.834-5.111 5.24-8.529 6.71-1.36.582-2.881.963-4.355 1.03-3.427.153-5.6-2.138-5.524-5.574.077-3.646 1.599-6.7 3.887-9.44.344-.343.65-.706.957-1.078zm-13.718 5.202c-.143.277-.249.449-.335.64-1.244 2.958-2.527 5.898-3.724 8.876-1.35 3.35-2.632 6.738-3.226 10.318-.172 1.02-.287 2.07-.239 3.102.057 1.202.871 1.517 1.752.706a12.22 12.22 0 001.79-2.11 32.781 32.781 0 004.327-9.038c.938-3.083 1.56-6.223 1.273-9.478-.096-1.193-.517-2.233-1.618-3.016zm14.484.668c2.393-.754 6.03-4.457 6.117-6.27-2.738 1.46-4.538 3.645-6.117 6.27zM7.516 54.282c1.609-.448 3.006-.897 4.432-1.212 1.953-.43 3.925-.782 5.888-1.136.45-.085.928-.076 1.388-.047 1.685.076 2.326.563 2.9 2.319.173-.391.307-.649.393-.926 1.436-4.419 3.666-8.428 6.414-12.16.698-.954 1.292-2.014 2.134-2.815 1.12-1.07 2.94-.401 3.035 1.05.038.553-.22 1.193-.508 1.699-.823 1.46-1.742 2.872-2.622 4.304-2.193 3.58-3.743 7.435-5.093 11.387-.22.649-.47 1.317-.833 1.89-.536.859-1.474 1.135-2.345.83-.843-.296-1.398-1.145-1.35-2.11.029-.429.124-.849.24-1.622-1.169 1.327-2.442.916-3.686.897-2.413-.047-4.7.611-6.902 1.556a148.38 148.38 0 01-4.02 1.642c-.46.171-.948.286-1.427.353-2.365.353-4.164-1.432-3.743-3.79.172-.954.546-1.89.928-2.786 5.534-12.675 13.383-23.9 21.855-34.742.546-.697 1.235-1.308 1.953-1.823.842-.602 1.867-.468 2.565.162.738.668.929 1.546.46 2.52a10.273 10.273 0 01-.976 1.536c-4.988 6.5-10.071 12.943-14.245 20.006-2.259 3.827-4.24 7.826-6.337 11.758-.191.344-.297.726-.498 1.26zM40.667 27.92c-.02 2.071-2.594 4.992-4.509 5.116-1.292.086-2.24-.773-2.26-2.052-.018-1.87 2.203-4.744 4.021-5.211 1.609-.401 2.767.506 2.748 2.147z" fill="#9D0101"/><path d="M64.871 73.945c0-.118.069-.178.205-.178h1.005c.261 0 .47.14.627.421l.675 1.198c.174.31.357.534.548.673.195.139.42.208.675.208h.196v-2.079a.419.419 0 01.409-.42h.823c.113 0 .209.041.287.125a.41.41 0 01.122.295v2.08h.196c.255 0 .478-.07.67-.21.194-.138.377-.362.548-.672l.68-1.198c.153-.28.36-.42.622-.42h1.01c.113 0 .181.038.204.116v.061a.538.538 0 01-.07.243l-.944 1.706a2.63 2.63 0 01-.461.616c-.169.162-.39.277-.666.343.191.04.387.16.587.36.203.2.383.417.54.652l1.084 1.727c.078.127.1.227.065.3-.032.072-.103.108-.213.108h-1.001a.72.72 0 01-.366-.117.903.903 0 01-.3-.291l-.77-1.211c-.183-.295-.368-.516-.553-.664a1.014 1.014 0 00-.666-.226h-.196v2.11a.38.38 0 01-.122.286.399.399 0 01-.287.113h-.823a.414.414 0 01-.292-.113.39.39 0 01-.117-.286v-2.11h-.196c-.261 0-.485.076-.67.226-.183.148-.368.369-.553.664l-.766 1.211a.905.905 0 01-.3.29.72.72 0 01-.366.118H64.95c-.114 0-.185-.04-.214-.117a.228.228 0 01-.017-.1c0-.046.026-.11.078-.191l1.088-1.727c.157-.235.336-.452.536-.651.203-.2.399-.32.587-.36a1.444 1.444 0 01-.665-.344 2.546 2.546 0 01-.458-.616l-.944-1.706a.539.539 0 01-.07-.243zm11.619 5.647v-5.404a.4.4 0 01.413-.412h.766a.39.39 0 01.287.117.382.382 0 01.122.287v4.344l2.477-4.336a.932.932 0 01.274-.29.575.575 0 01.322-.122h1.284c.113 0 .21.04.287.121a.404.404 0 01.118.291v5.404a.39.39 0 01-.122.29.406.406 0 01-.291.118h-.767a.404.404 0 01-.41-.408v-4.028l-2.27 4.028a.9.9 0 01-.284.29.655.655 0 01-.352.118h-1.441a.406.406 0 01-.413-.408zm8.401-4.996v-.408a.4.4 0 01.413-.412h5.524a.402.402 0 01.413.412v.408a.4.4 0 01-.117.295.41.41 0 01-.296.113h-1.941v4.597a.38.38 0 01-.122.286.399.399 0 01-.287.113h-.823a.414.414 0 01-.292-.113.39.39 0 01-.117-.286v-4.597h-1.941a.41.41 0 01-.297-.113.4.4 0 01-.117-.295zm7.866 0v-.408a.4.4 0 01.414-.412h5.523a.402.402 0 01.414.412v.408a.4.4 0 01-.118.295.41.41 0 01-.296.113h-1.941v4.597a.38.38 0 01-.122.286.399.399 0 01-.287.113h-.823a.414.414 0 01-.292-.113.39.39 0 01-.117-.286v-4.597H93.17a.41.41 0 01-.296-.113.4.4 0 01-.118-.295zm8.053 5.157c0-.047.019-.1.057-.161l1.201-1.975c-.821-.356-1.23-.96-1.227-1.814 0-.645.223-1.145.67-1.498.45-.353 1.013-.53 1.689-.53h3.408c.108 0 .199.04.274.118a.387.387 0 01.118.287v5.42a.383.383 0 01-.122.287.398.398 0 01-.287.113h-.823a.408.408 0 01-.292-.117.405.405 0 01-.117-.291v-1.797h-1.558l-1.045 1.806c-.148.266-.358.399-.631.399h-1.097c-.145 0-.218-.082-.218-.247zm2.39-4.749c-.482 0-.722.255-.722.764 0 .51.24.764.722.764h2.159v-1.528H103.2z" fill="#960301"/><path d="M4.17 4.5a.255.255 0 00-.25-.258c-.134 0-.249.093-.374.31l-.156.25a6.13 6.13 0 01-.873 1.026c-.323.311-.624.467-.905.467-.343 0-.582-.29-.582-.695 0-.809.634-2.136 1.56-3.267C3.297 1.463 4.035.83 4.337.83c.114 0 .218.103.218.238 0 .353-.353.882-.832 1.245-.301.238-.374.342-.374.56 0 .259.197.456.457.456.23 0 .468-.156.76-.519.468-.58.759-1.286.759-1.866C5.325.374 4.97 0 4.42 0c-.718 0-1.602.622-2.631 1.856C.645 3.215 0 4.584 0 5.621c0 .902.551 1.524 1.352 1.524.666 0 1.435-.466 2.07-1.255.416-.518.748-1.12.748-1.39zm1.464-.331c.083-.176.104-.228.26-.498l.042-.062a6.93 6.93 0 001.591-1.027c.582-.518.905-1.11.905-1.649 0-.363-.229-.622-.551-.622-.656 0-1.654 1.048-2.58 2.707A27.505 27.505 0 004.19 5.362c-.24.57-.344.891-.344 1.11 0 .196.167.352.375.352.187 0 .322-.125.489-.467l.176-.363c.354-.715.832-1.213 1.373-1.452-.385.415-.665 1.006-.665 1.41 0 .384.301.696.686.696.406 0 .946-.312 1.425-.82.374-.394.593-.757.593-.985 0-.166-.104-.28-.24-.28-.114 0-.197.052-.332.207-.25.312-.416.498-.53.623-.157.135-.344.238-.469.238-.093 0-.156-.072-.156-.166 0-.124.146-.383.395-.684l.219-.28c.312-.374.374-.498.374-.664a.433.433 0 00-.426-.446c-.291 0-.697.208-1.435.736l-.063.042zm.811-1.545c.021-.031.042-.052.042-.062l.198-.332a4.71 4.71 0 01.55-.726c.094-.094.178-.135.24-.135.042 0 .083.041.083.083 0 .135-.177.404-.405.643a2.928 2.928 0 01-.708.529z" fill="#000"/><path d="M9.175 5.942v.094c0 .3.239.55.54.55.417 0 .832-.229 1.29-.706.385-.394.624-.798.624-1.037 0-.145-.104-.26-.25-.26-.124 0-.218.073-.353.25-.395.55-.655.788-.863.788-.104 0-.177-.073-.177-.166 0-.145.135-.415.343-.695.104-.124.125-.176.125-.249 0-.083-.031-.135-.167-.249.073-.176.104-.29.104-.456 0-.467-.301-.767-.748-.767-.49 0-1.02.352-1.508.995-.427.56-.697 1.255-.697 1.774 0 .477.291.819.676.819.374 0 .728-.228 1.06-.685zm-.063-.777a.331.331 0 00-.062.072c-.24.29-.364.384-.52.384-.094 0-.156-.073-.156-.176 0-.198.166-.581.385-.903.239-.332.52-.55.697-.55.093 0 .166.073.166.167 0 .134-.156.435-.322.601l-.167.176a.166.166 0 00-.052.114c0 .021.01.052.031.115z" fill="#000"/><path d="M12.733 4.822c-.104.146-.145.26-.145.394 0 .25.229.426.53.426.291 0 .614-.125.947-.353.343-.239.54-.508.54-.726a.266.266 0 00-.26-.27c-.083 0-.145.032-.332.187-.24.187-.437.311-.53.311-.053 0-.105-.041-.105-.083 0-.083.156-.249.396-.425.25-.166.332-.28.332-.446 0-.166-.156-.332-.322-.332-.146 0-.312.094-.697.374-.416.31-.717.57-1.092.995l-.073.083a3.11 3.11 0 01.458-.705c.24-.28.27-.342.27-.477 0-.166-.156-.311-.353-.311-.156 0-.281.062-.427.218-.166.165-.405.508-.592.84-.437.746-.832 1.763-.832 2.126 0 .217.156.363.374.363.187 0 .302-.083.416-.301l.229-.477c.25-.508.738-1.048 1.268-1.41z" fill="#000"/><path d="M16.209 5.071c-.01-.155-.104-.26-.24-.26-.134 0-.218.053-.446.333-.104.114-.292.29-.416.394-.156.135-.25.176-.344.176-.104 0-.166-.072-.166-.176 0-.197.229-.591.655-1.12.146-.197.198-.29.198-.436 0-.217-.156-.383-.364-.383-.229 0-.437.176-.739.622-.447.674-.676 1.224-.676 1.67 0 .456.302.767.718.767.385 0 .884-.27 1.32-.736.271-.29.51-.695.5-.85zm.718-3.329c0-.228-.156-.394-.375-.394-.374 0-.79.425-.79.82 0 .207.177.362.395.362.374 0 .77-.404.77-.788z" fill="#000"/><path d="M18.247 2.54c.094-.124.156-.217.28-.362.427-.508.49-.602.49-.757 0-.177-.156-.322-.375-.322-.166 0-.301.083-.488.29a14.99 14.99 0 00-1.103 1.4L17 2.874a2.559 2.559 0 01-.385.072c-.572.094-.748.208-.748.488 0 .217.166.363.416.363.052 0 .093 0 .176-.01-.572.964-.81 1.596-.81 2.167 0 .497.342.85.82.85.448 0 .916-.27 1.415-.798.406-.436.676-.872.676-1.1a.268.268 0 00-.27-.27c-.115 0-.198.052-.323.218-.447.602-.925 1.017-1.165 1.017-.135 0-.218-.104-.218-.27 0-.166.063-.363.219-.726.207-.498.343-.747.686-1.244l.083-.125c.094-.03.135-.041.26-.072a8.69 8.69 0 01.915-.197c.24-.032.344-.063.427-.125a.447.447 0 00.187-.352.375.375 0 00-.375-.384c-.062 0-.187.02-.311.052l-.323.083c-.01 0-.041.01-.104.03z" fill="#000"/><path d="M19.73 7.176l.094-.051c.863-.457 1.31-.799 1.83-1.421.282-.332.438-.633.438-.82 0-.134-.104-.238-.25-.238-.114 0-.198.062-.343.26a7.54 7.54 0 01-.728.777 3.244 3.244 0 01-.572.456l.03-.083c.282-.55.594-1.11.791-1.43.156-.26.26-.436.312-.52a.623.623 0 00.094-.29c0-.176-.156-.331-.354-.331-.104 0-.187.041-.29.124-.105.073-.157.135-.563.643a12.18 12.18 0 01-1.05 1.161c-.198.177-.405.312-.52.312-.062 0-.125-.063-.125-.115 0-.217.447-.777 1.03-1.317.26-.228.333-.352.333-.528a.31.31 0 00-.323-.322c-.239 0-.603.27-1.06.778-.562.632-.885 1.265-.885 1.773 0 .384.26.674.614.674.416 0 .884-.332 1.3-.902-.094.207-.146.311-.26.54-.135.248-.166.31-.218.414l-.24.104c-.457.218-.738.342-.936.446a4.493 4.493 0 00-.728.456c-.478.394-.727.84-.727 1.286 0 .508.405.871.967.871.686 0 1.279-.508 1.789-1.514.135-.28.405-.871.52-1.14l.03-.053zm-1.102.498c-.03.062-.052.114-.073.145-.405.82-.738 1.203-1.03 1.203-.113 0-.207-.083-.207-.197 0-.186.187-.435.5-.674.176-.145.436-.29.81-.477zm7.156-6.118l-.052.072c-.28.394-.76 1.14-1.113 1.763a16.266 16.266 0 00-1.02 2.043c-.228.53-.322.84-.322 1.068 0 .301.281.57.604.57.197 0 .229-.051.416-.632.197-.622.593-1.514 1.03-2.364l.051-.094c.49-.155 1.144-.27 1.602-.27.073 0 .135 0 .187.011.073.01.125.01.166.01.198 0 .365-.228.365-.487 0-.249-.209-.384-.583-.384a6.01 6.01 0 00-1.206.156c.364-.643.78-1.265 1.04-1.566l.083-.02c.686-.167 1.31-.27 1.664-.27.104 0 .166.01.28.041.073.01.136.02.178.02.207 0 .436-.248.436-.487 0-.27-.29-.435-.77-.435-.592 0-1.695.166-2.402.363-.572.155-.81.321-.81.59 0 .115.051.198.176.302zm3.023 4.366c-.02.083-.031.124-.031.186 0 .363.25.633.593.633.395 0 .873-.3 1.352-.86.343-.395.55-.779.55-1.007 0-.145-.103-.26-.239-.26-.114 0-.207.063-.332.219l-.302.383c-.28.343-.489.519-.624.519-.083 0-.145-.083-.145-.187 0-.197.135-.487.468-1.006.343-.518.395-.632.395-.809a.338.338 0 00-.354-.352c-.166 0-.312.104-.447.321l-.354.55a8.16 8.16 0 01-.748 1.037c-.136.156-.26.239-.354.239-.073 0-.125-.052-.125-.166 0-.343.26-.861.718-1.473.218-.29.26-.384.26-.54a.33.33 0 00-.343-.331c-.24 0-.53.27-.895.809-.447.663-.728 1.41-.728 1.96 0 .477.302.809.697.809.364 0 .676-.208.988-.674z" fill="#000"/><path d="M31.73 4.729c.031-.052.052-.093.073-.124l.27-.446.292-.446a.68.68 0 00.062-.26.333.333 0 00-.322-.331c-.27 0-.572.321-1.01 1.088-.54.944-.998 2.095-.998 2.479 0 .228.167.404.375.404.156 0 .291-.103.385-.31l.176-.415c.23-.53.843-1.162 1.425-1.483-.333.466-.447.725-.447 1.099 0 .415.291.705.686.705.385 0 .853-.26 1.27-.716.384-.435.644-.891.644-1.13a.24.24 0 00-.25-.249c-.156 0-.187.02-.572.54-.29.394-.51.57-.676.57-.083 0-.135-.052-.135-.145 0-.239.343-.789.801-1.286.28-.29.354-.415.354-.591 0-.208-.188-.363-.427-.363-.187 0-.364.072-.676.29-.364.249-.728.55-1.123.944l-.177.176z" fill="#000"/><path d="M36.611 3.184a.901.901 0 00-.5-.135c-.436 0-.966.28-1.34.716-.614.684-.978 1.534-.978 2.26 0 .56.312.944.78.944.405 0 .821-.3 1.092-.788.02.425.25.674.603.674s.717-.26 1.165-.82c.364-.466.644-.974.644-1.171a.255.255 0 00-.25-.26c-.134 0-.238.083-.436.364a7.308 7.308 0 01-.468.601c-.104.104-.218.176-.302.176-.083 0-.145-.083-.145-.197s.041-.28.135-.529a16.23 16.23 0 01.79-1.69c.385-.716.604-1.1.895-1.556.135-.207.177-.31.177-.435a.357.357 0 00-.354-.353c-.26 0-.468.228-.832.892-.312.591-.406.767-.676 1.307zm-.385.757l-.343.684c-.26.53-.437.861-.551 1.048-.167.259-.323.394-.458.394-.104 0-.166-.094-.166-.239 0-.373.25-.954.613-1.43.281-.374.468-.509.718-.509.073 0 .114.01.187.052z" fill="#000"/></svg>