<svg width="849" height="849" xmlns="http://www.w3.org/2000/svg"><g fill="none" fill-rule="evenodd"><path d="M788.384 459.307a2.187 2.187 0 01-.17-.819 2.147 2.147 0 01.629-1.547 2.21 2.21 0 011.242-.624c.126-.022.257-.033.39-.033 1.198 0 2.182.933 2.227 2.113v.152c0 .582-.234 1.14-.651 1.552a2.243 2.243 0 01-1.575.643c-.96 0-1.779-.598-2.092-1.437zm-106.72-3.015a2.236 2.236 0 011.934 1.074c.417.69.417 1.55 0 2.242a2.23 2.23 0 01-1.38 1.009 2.257 2.257 0 01-.746.127c-1.23 0-2.229-.983-2.229-2.195v-.152c.045-1.18 1.029-2.113 2.228-2.113.065 0 .129.002.192.008zM788.336 344.19a2.19 2.19 0 01-.124-.7 2.144 2.144 0 01.63-1.546 2.212 2.212 0 011.559-.646h.074c.317.012.616.088.885.216.253.105.486.257.685.45.418.405.654.958.656 1.535v.073c0 .582-.234 1.14-.651 1.552a2.243 2.243 0 01-1.575.643 2.225 2.225 0 01-2.14-1.577zm-108.294-2.32a2.214 2.214 0 011.485-.572h.07a2.237 2.237 0 012 1.073c.417.69.417 1.55 0 2.241a2.223 2.223 0 01-1.214.963 2.255 2.255 0 01-.912.192c-1.23 0-2.229-.983-2.229-2.195a2.207 2.207 0 01.8-1.701zM790.43 552.65c1.193-.049 2.135-1.015 2.135-2.192 0-1.18-.948-2.15-2.146-2.194h-.074c-.16 0-.32.019-.474.053.192-.055.394-.086.604-.089a2.213 2.213 0 011.57.62c.418.405.654.958.656 1.535v.073c0 .582-.234 1.14-.651 1.552a2.243 2.243 0 01-1.62.643zm-108.479-.05a2.273 2.273 0 01-.48.051c-1.23 0-2.229-.983-2.229-2.195-.001-1.218.992-2.211 2.23-2.228a2.213 2.213 0 011.57.62c.417.405.653.958.655 1.535v.073a2.18 2.18 0 01-.65 1.552 2.236 2.236 0 01-1.096.592zm-48.368-93.257a2.147 2.147 0 01.442-2.403 2.21 2.21 0 011.262-.627 2.276 2.276 0 01.64-.015c.712.059 1.36.452 1.73 1.067.417.69.417 1.55 0 2.242-.157.26-.364.481-.605.654a2.241 2.241 0 01-1.394.482c-.59 0-1.157-.232-1.575-.643a2.188 2.188 0 01-.5-.757zm-106.735-3.052a2.236 2.236 0 011.935 1.074c.417.69.417 1.55 0 2.242a2.23 2.23 0 01-1.382 1.01 2.256 2.256 0 01-2.322-.517 2.175 2.175 0 01-.65-1.552v-.152c.044-1.18 1.028-2.113 2.227-2.113.065 0 .129.002.192.008zm106.685-112.064a2.192 2.192 0 01-.138-.737 2.144 2.144 0 01.63-1.546 2.212 2.212 0 011.559-.646h.074a2.237 2.237 0 012 1.073 2.166 2.166 0 01-.394 2.724 2.24 2.24 0 01-1.606.672c-.59 0-1.157-.231-1.575-.643a2.186 2.186 0 01-.55-.897zm-108.32-2.345c.406-.373.94-.582 1.497-.584h.074a2.237 2.237 0 012 1.073c.416.69.416 1.55 0 2.241-.28.463-.716.8-1.219.964a2.25 2.25 0 01-.91.191 2.245 2.245 0 01-1.576-.643 2.175 2.175 0 01-.65-1.552 2.207 2.207 0 01.785-1.69zm110.403 210.769c1.193-.05 2.136-1.016 2.136-2.193 0-1.18-.948-2.15-2.146-2.194h-.074c-.158 0-.314.018-.465.05.188-.053.386-.083.591-.086a2.213 2.213 0 011.572.619c.419.405.655.958.657 1.536v.073c0 1.212-.998 2.195-2.229 2.195h-.042zm-108.271-4.324a2.226 2.226 0 011.383 1.01c.417.69.417 1.55 0 2.242a2.237 2.237 0 01-2.038 1.072 2.243 2.243 0 01-1.61-.643 2.175 2.175 0 01-.651-1.552c-.002-1.217.99-2.21 2.225-2.228.237-.004.47.03.69.099zm-48.6-89.042a2.147 2.147 0 01.467-2.345 2.21 2.21 0 011.241-.624 2.28 2.28 0 01.39-.033c1.199 0 2.183.933 2.227 2.113v.152a2.176 2.176 0 01-.65 1.552 2.243 2.243 0 01-1.576.643 2.228 2.228 0 01-2.1-1.458zM372.24 456.32a2.206 2.206 0 011.876 2.168c0 .514-.18.988-.482 1.363a2.243 2.243 0 01-1.794.894c-1.23 0-2.228-.983-2.228-2.195v-.152c.044-1.18 1.028-2.113 2.227-2.113.137 0 .27.012.401.035zM478.7 344.176a2.193 2.193 0 01-.118-.684 2.144 2.144 0 01.63-1.546 2.212 2.212 0 011.558-.646h.074c.317.012.617.088.886.216.252.105.485.257.684.45.418.405.655.958.656 1.535v.073a2.176 2.176 0 01-.65 1.552 2.243 2.243 0 01-1.576.643 2.225 2.225 0 01-2.144-1.593zm-108.289-2.303a2.214 2.214 0 011.485-.573h.074c1.198.044 2.146 1.013 2.146 2.194 0 .427-.124.826-.339 1.164-.098.17-.219.327-.361.468a2.243 2.243 0 01-1.575.643c-1.231 0-2.23-.983-2.23-2.195a2.207 2.207 0 01.8-1.701zm109.83 206.446a2.3 2.3 0 01.603-.089 2.213 2.213 0 011.57.62c.185.179.334.386.443.612a2.237 2.237 0 00-2.068-1.195h-.074c-.161 0-.32.018-.475.052zm-107.92 4.283a2.273 2.273 0 01-.48.051c-1.231 0-2.23-.983-2.23-2.195-.001-1.218.992-2.211 2.23-2.228a2.213 2.213 0 011.57.62c.418.405.654.958.655 1.535v.073a2.176 2.176 0 01-.65 1.552 2.236 2.236 0 01-1.095.592zm-48.366-93.25a2.19 2.19 0 01-.19-.863 2.147 2.147 0 01.63-1.548 2.21 2.21 0 011.26-.626c.122-.02.247-.03.374-.03 1.199 0 2.183.933 2.227 2.113v.152a2.176 2.176 0 01-.65 1.552 2.243 2.243 0 01-1.575.643 2.23 2.23 0 01-2.076-1.393zm-106.737-3.06a2.236 2.236 0 011.935 1.075c.417.69.417 1.55 0 2.242-.31.512-.811.87-1.382 1.01a2.256 2.256 0 01-2.322-.517 2.175 2.175 0 01-.651-1.552v-.152c.045-1.18 1.029-2.113 2.227-2.113.065 0 .13.002.193.008zm106.686-112.06a2.192 2.192 0 01-.14-.74 2.144 2.144 0 01.631-1.547 2.212 2.212 0 011.562-.645h.074c.317.012.616.088.885.216.252.105.485.257.685.45.418.405.654.958.655 1.535v.073a2.176 2.176 0 01-.65 1.552 2.243 2.243 0 01-1.575.643 2.226 2.226 0 01-2.127-1.537zm-108.306-2.36c.403-.365.931-.57 1.481-.572h.074a2.237 2.237 0 012 1.073c.417.69.417 1.55 0 2.241-.28.463-.716.8-1.219.964a2.25 2.25 0 01-.91.191 2.241 2.241 0 01-1.575-.643 2.175 2.175 0 01-.651-1.552 2.207 2.207 0 01.8-1.702zm110.388 210.78c1.193-.049 2.135-1.015 2.135-2.192 0-1.18-.948-2.15-2.146-2.194h-.074c-.157 0-.313.017-.464.05.189-.053.388-.083.594-.086a2.213 2.213 0 011.57.62c.418.405.654.958.655 1.535v.073a2.176 2.176 0 01-.65 1.552 2.243 2.243 0 01-1.62.643zm-108.272-4.323a2.226 2.226 0 011.383 1.01c.417.69.417 1.55 0 2.242a2.237 2.237 0 01-2.038 1.072 2.243 2.243 0 01-1.61-.643 2.175 2.175 0 01-.651-1.552c-.002-1.217.99-2.21 2.226-2.228.236-.004.47.03.69.099zm-48.566-88.984a2.147 2.147 0 01.442-2.403 2.21 2.21 0 011.262-.627 2.276 2.276 0 01.64-.015c.712.059 1.36.452 1.73 1.067.417.69.417 1.55 0 2.242-.157.26-.364.481-.605.654a2.241 2.241 0 01-1.394.482c-.59 0-1.157-.232-1.575-.643a2.188 2.188 0 01-.5-.757zm-104.963-1.959a2.166 2.166 0 01-.181 2.465 2.243 2.243 0 01-1.794.894c-.59 0-1.157-.232-1.575-.643a2.175 2.175 0 01-.65-1.552v-.152c0-1.21.996-2.192 2.225-2.192a2.23 2.23 0 011.975 1.18zM169.1 344.228a2.192 2.192 0 01-.138-.737 2.144 2.144 0 01.63-1.546 2.212 2.212 0 011.559-.646h.074a2.237 2.237 0 012 1.073 2.166 2.166 0 01-.394 2.724 2.24 2.24 0 01-1.606.672c-.59 0-1.157-.231-1.575-.643a2.186 2.186 0 01-.55-.897zm-108.33-2.345a2.22 2.22 0 011.496-.584h.074c1.198.044 2.146 1.013 2.146 2.194 0 .427-.124.826-.34 1.164-.097.17-.218.327-.36.468a2.243 2.243 0 01-1.576.643c-.59 0-1.157-.231-1.575-.643a2.175 2.175 0 01-.65-1.552 2.207 2.207 0 01.785-1.69zM170.702 548.3a2.216 2.216 0 012.093.552c.27.26.464.583.569.933a2.178 2.178 0 00-.206-.447 2.237 2.237 0 00-1.999-1.073h-.074c-.13 0-.257.012-.383.035zm-108.01 4.3a2.273 2.273 0 01-.48.052 2.243 2.243 0 01-1.576-.643 2.175 2.175 0 01-.65-1.552c-.003-1.217.99-2.21 2.225-2.228a2.213 2.213 0 011.57.62c.418.405.654.958.656 1.535v.073a2.18 2.18 0 01-.65 1.552 2.236 2.236 0 01-1.096.592zm-.48-22.866c-1.23 0-2.227-.982-2.227-2.192v-.155c0-1.21.997-2.192 2.226-2.192 1.23 0 2.226.981 2.226 2.192v.155c0 1.21-.997 2.192-2.226 2.192zm0-22.998c-1.23 0-2.227-.981-2.227-2.192v-.155c0-1.21.997-2.192 2.226-2.192 1.23 0 2.226.982 2.226 2.192v.155c0 1.21-.997 2.192-2.226 2.192zm0-22.998c-1.23 0-2.227-.98-2.227-2.191v-.152c0-1.211.997-2.192 2.226-2.192 1.23 0 2.226.981 2.226 2.192v.152c0 1.21-.997 2.191-2.226 2.191zm0-45.992a2.243 2.243 0 01-1.576-.643 2.175 2.175 0 01-.65-1.552v-.149c0-1.21.996-2.191 2.225-2.191 1.23 0 2.226.98 2.226 2.191v.15c0 .581-.233 1.14-.65 1.551a2.243 2.243 0 01-1.576.643zm0-22.997c-1.23 0-2.227-.982-2.227-2.192v-.152c0-1.21.997-2.192 2.226-2.192 1.23 0 2.226.981 2.226 2.192v.152c0 .581-.235 1.139-.652 1.55a2.243 2.243 0 01-1.574.642zm0-22.998c-1.23 0-2.227-.981-2.227-2.192v-.152c0-1.21.997-2.192 2.226-2.192 1.23 0 2.226.982 2.226 2.192v.152c0 .582-.235 1.139-.652 1.55a2.243 2.243 0 01-1.574.642zm0-22.995a2.24 2.24 0 01-1.576-.643 2.175 2.175 0 01-.65-1.551v-.152c0-1.21.996-2.192 2.225-2.192 1.23 0 2.226.981 2.226 2.192v.152c0 .581-.233 1.14-.65 1.551a2.243 2.243 0 01-1.576.643zm109.012 160.978c-1.23 0-2.226-.982-2.226-2.192v-.155c.045-1.18 1.029-2.113 2.228-2.113 1.198 0 2.182.933 2.227 2.113v.155c-.002 1.21-1 2.192-2.229 2.192zm0-22.998c-1.23 0-2.226-.981-2.226-2.192v-.155c.045-1.18 1.029-2.113 2.228-2.113 1.198 0 2.182.934 2.227 2.113v.155c-.002 1.211-1 2.192-2.229 2.192zm0-22.998c-1.23 0-2.226-.98-2.226-2.191v-.152c.045-1.18 1.029-2.114 2.228-2.114 1.198 0 2.182.934 2.227 2.114v.152c-.002 1.21-1 2.191-2.229 2.191zm0-45.992c-.59 0-1.157-.231-1.575-.643a2.175 2.175 0 01-.65-1.552v-.149a2.187 2.187 0 011.088-1.968 2.259 2.259 0 012.277 0 2.187 2.187 0 011.089 1.968v.15c0 1.212-.998 2.194-2.229 2.194zm0-22.997c-1.23 0-2.226-.982-2.226-2.192v-.152a2.187 2.187 0 011.09-1.969 2.259 2.259 0 012.276 0 2.187 2.187 0 011.089 1.969v.152c-.002 1.21-1 2.192-2.229 2.192zm0-22.998c-1.23 0-2.226-.981-2.226-2.192v-.152c.045-1.18 1.029-2.113 2.228-2.113 1.198 0 2.182.934 2.227 2.113v.152c-.002 1.211-1 2.192-2.229 2.192zm0-22.995a2.24 2.24 0 01-1.575-.643 2.175 2.175 0 01-.65-1.551v-.152c.044-1.18 1.028-2.114 2.227-2.114 1.198 0 2.182.934 2.227 2.114v.152c0 1.212-.998 2.194-2.229 2.194zm-21.783 183.896c-1.245.006-2.266-.97-2.3-2.195a2.11 2.11 0 01.61-1.546 2.178 2.178 0 011.551-.646h.145c1.198.044 2.146 1.013 2.146 2.194 0 1.18-.948 2.15-2.146 2.193h-.006zm-21.789 0c-1.245.006-2.266-.97-2.3-2.195a2.11 2.11 0 01.61-1.546 2.178 2.178 0 011.551-.646h.145c1.198.044 2.146 1.013 2.146 2.194 0 1.18-.948 2.15-2.146 2.193h-.006zm-21.789 0c-1.245.006-2.266-.97-2.3-2.195a2.11 2.11 0 01.61-1.546 2.178 2.178 0 011.551-.646h.145c1.198.044 2.146 1.013 2.146 2.194 0 1.18-.948 2.15-2.146 2.193h-.006zm-21.789 0c-1.245.006-2.266-.97-2.3-2.195a2.11 2.11 0 01.61-1.546 2.178 2.178 0 011.551-.646h.145a2.237 2.237 0 012 1.073 2.17 2.17 0 010 2.242 2.237 2.237 0 01-2 1.072h-.006zm65.42-206.966c-1.245.005-2.265-.97-2.297-2.195a2.11 2.11 0 01.61-1.546 2.178 2.178 0 011.55-.646h.143a2.237 2.237 0 012 1.073c.416.69.416 1.55 0 2.241a2.237 2.237 0 01-2 1.073h-.006zm-21.786 0c-1.245.005-2.267-.97-2.3-2.195a2.11 2.11 0 01.61-1.546 2.178 2.178 0 011.55-.646h.127c1.198.044 2.146 1.013 2.146 2.194 0 1.18-.948 2.149-2.146 2.193h.013zm-21.79 0c-1.244.005-2.266-.97-2.3-2.195a2.11 2.11 0 01.61-1.546 2.178 2.178 0 011.552-.646h.145c1.198.044 2.146 1.013 2.146 2.194 0 1.18-.948 2.149-2.146 2.193h-.006zm-21.788 0c-1.245.005-2.267-.97-2.3-2.195a2.11 2.11 0 01.61-1.546 2.178 2.178 0 011.55-.646h.146c1.198.044 2.146 1.013 2.146 2.194 0 1.18-.948 2.149-2.146 2.193h-.006zm65.364 114.994c-1.244.005-2.264-.968-2.297-2.192a2.11 2.11 0 01.608-1.548 2.178 2.178 0 011.553-.647h.142a2.237 2.237 0 012 1.073 2.17 2.17 0 010 2.242 2.237 2.237 0 01-2 1.072h-.006zm-21.799 0c-1.244.007-2.266-.967-2.3-2.192a2.11 2.11 0 01.609-1.548 2.178 2.178 0 011.553-.647h.138c1.198.044 2.146 1.013 2.146 2.194 0 1.18-.948 2.15-2.146 2.193zm-21.789 0c-1.244.007-2.266-.967-2.3-2.192a2.11 2.11 0 01.609-1.548 2.178 2.178 0 011.553-.647h.145c1.197.044 2.146 1.013 2.146 2.194 0 1.18-.949 2.15-2.146 2.193h-.007zm-21.789 0c-1.243.005-2.264-.968-2.3-2.192a2.11 2.11 0 01.609-1.548 2.178 2.178 0 011.552-.647h.146c1.197.044 2.146 1.013 2.146 2.194 0 1.18-.949 2.15-2.146 2.193h-.007zm5.687-28.378a2.214 2.214 0 01-2.046-1.333 2.155 2.155 0 01.46-2.373l.049-.049a2.254 2.254 0 013.099.05 2.17 2.17 0 01.052 3.051c-.428.42-1.01.655-1.614.654zm14.398-14.2a2.205 2.205 0 01-2.034-1.317 2.146 2.146 0 01.438-2.359l.096-.094a2.251 2.251 0 013.149 0c.87.856.87 2.245 0 3.101a2.35 2.35 0 01-1.649.669zm14.436-14.215a2.206 2.206 0 01-2.034-1.315 2.146 2.146 0 01.435-2.358l.095-.094a2.25 2.25 0 012.151-.567 2.21 2.21 0 011.575 1.55 2.17 2.17 0 01-.577 2.118 2.337 2.337 0 01-1.645.666zm14.435-14.212a2.206 2.206 0 01-2.037-1.316 2.146 2.146 0 01.438-2.36l.096-.094a2.254 2.254 0 013.099.052 2.17 2.17 0 01.05 3.052 2.362 2.362 0 01-1.646.666zm14.423-14.185a2.214 2.214 0 01-2.054-1.345 2.156 2.156 0 01.486-2.382l.056-.049a2.251 2.251 0 012.158-.538 2.209 2.209 0 011.553 1.572 2.17 2.17 0 01-.606 2.11 2.3 2.3 0 01-1.593.632zm-59.67 161.023a2.214 2.214 0 01-2.047-1.333 2.155 2.155 0 01.46-2.373l.052-.049a2.251 2.251 0 013.149 0c.87.857.87 2.245 0 3.101a2.3 2.3 0 01-1.615.654zm14.4-14.203a2.205 2.205 0 01-2.03-1.317 2.146 2.146 0 01.435-2.355l.095-.095a2.251 2.251 0 013.15 0 2.17 2.17 0 010 3.101 2.35 2.35 0 01-1.65.666zm14.436-14.212a2.209 2.209 0 01-2.032-1.318 2.149 2.149 0 01.433-2.357l.096-.095a2.251 2.251 0 013.148 0c.87.857.87 2.245 0 3.101a2.34 2.34 0 01-1.645.675v-.006zm14.43-14.215a2.205 2.205 0 01-2.035-1.317 2.146 2.146 0 01.438-2.358l.093-.092a2.251 2.251 0 012.18-.627 2.212 2.212 0 011.607 1.58c.202.777-.041 1.6-.635 2.148a2.35 2.35 0 01-1.649.666zM145.52 479.7a2.215 2.215 0 01-2.046-1.33 2.155 2.155 0 01.456-2.372l.052-.052a2.251 2.251 0 013.149 0c.87.856.87 2.244 0 3.1a2.29 2.29 0 01-1.611.654zm71.504 50.033c-1.23 0-2.226-.982-2.226-2.192v-.155c.045-1.18 1.029-2.113 2.227-2.113 1.2 0 2.183.933 2.228 2.113v.155c0 .582-.235 1.14-.653 1.55a2.244 2.244 0 01-1.576.642zm0-22.998c-1.23 0-2.226-.981-2.226-2.192v-.155c.045-1.18 1.029-2.113 2.227-2.113 1.2 0 2.183.934 2.228 2.113v.155c0 .582-.235 1.14-.653 1.551a2.244 2.244 0 01-1.576.641zm0-22.998c-1.23 0-2.226-.98-2.226-2.191v-.152c.045-1.18 1.029-2.114 2.227-2.114 1.2 0 2.183.934 2.228 2.114v.152c0 .581-.235 1.14-.653 1.55a2.244 2.244 0 01-1.576.641zm0-45.992a2.241 2.241 0 01-1.575-.643 2.175 2.175 0 01-.651-1.552v-.149a2.187 2.187 0 011.09-1.968 2.259 2.259 0 012.276 0 2.187 2.187 0 011.089 1.968v.15c0 1.212-.998 2.194-2.23 2.194zm0-22.997c-1.23 0-2.226-.982-2.226-2.192v-.152a2.187 2.187 0 011.09-1.969 2.259 2.259 0 012.276 0 2.187 2.187 0 011.089 1.969v.152c0 .582-.235 1.14-.653 1.55a2.244 2.244 0 01-1.576.642zm0-22.998c-1.23 0-2.226-.981-2.226-2.192v-.152c.045-1.18 1.029-2.113 2.227-2.113 1.2 0 2.183.934 2.228 2.113v.152c0 .582-.235 1.14-.653 1.551a2.244 2.244 0 01-1.576.641zm0-22.995c-.591 0-1.158-.23-1.575-.643a2.175 2.175 0 01-.651-1.551v-.152c.045-1.18 1.029-2.114 2.227-2.114 1.2 0 2.183.934 2.228 2.114v.152c0 1.212-.998 2.194-2.23 2.194zm109.007 160.978c-.591 0-1.158-.23-1.576-.641a2.175 2.175 0 01-.653-1.551v-.155c.044-1.18 1.028-2.113 2.227-2.113 1.199 0 2.183.933 2.227 2.113v.155c0 1.21-.996 2.192-2.225 2.192zm0-22.998a2.25 2.25 0 01-1.576-.64 2.175 2.175 0 01-.653-1.552v-.155c.044-1.18 1.028-2.113 2.227-2.113 1.199 0 2.183.934 2.227 2.113v.155c0 1.21-.996 2.192-2.225 2.192zm0-22.998a2.247 2.247 0 01-1.576-.64 2.175 2.175 0 01-.653-1.551v-.152c.044-1.18 1.028-2.114 2.227-2.114 1.199 0 2.183.934 2.227 2.114v.152c0 1.21-.996 2.191-2.225 2.191zm0-45.992c-1.231 0-2.23-.982-2.23-2.195v-.149a2.187 2.187 0 011.09-1.968 2.259 2.259 0 012.276 0 2.187 2.187 0 011.09 1.968v.15c0 .581-.234 1.14-.651 1.551a2.243 2.243 0 01-1.575.643zm0-22.997c-.591 0-1.158-.23-1.576-.641a2.175 2.175 0 01-.653-1.551v-.152a2.187 2.187 0 011.089-1.969 2.259 2.259 0 012.276 0 2.187 2.187 0 011.09 1.969v.152c0 .581-.235 1.139-.652 1.55a2.243 2.243 0 01-1.574.642zm0-22.998a2.25 2.25 0 01-1.576-.64 2.175 2.175 0 01-.653-1.552v-.152c.044-1.18 1.028-2.113 2.227-2.113 1.199 0 2.183.934 2.227 2.113v.152c0 .582-.234 1.139-.651 1.55a2.243 2.243 0 01-1.574.642zm0-22.995c-1.231 0-2.23-.982-2.23-2.194v-.152c.045-1.18 1.03-2.114 2.228-2.114 1.199 0 2.183.934 2.227 2.114v.152a2.174 2.174 0 01-.65 1.551 2.243 2.243 0 01-1.575.643zm-21.777 183.896c-1.245.006-2.266-.97-2.3-2.195a2.11 2.11 0 01.61-1.546 2.178 2.178 0 011.551-.646h.142a2.237 2.237 0 012 1.073 2.17 2.17 0 010 2.242 2.237 2.237 0 01-2 1.072h-.003zm-21.789 0c-1.245.006-2.266-.97-2.3-2.195a2.11 2.11 0 01.61-1.546 2.178 2.178 0 011.551-.646h.145a2.237 2.237 0 012 1.073 2.17 2.17 0 010 2.242 2.237 2.237 0 01-2 1.072h-.006zm-21.79 0c-1.243.006-2.264-.97-2.296-2.195a2.11 2.11 0 01.61-1.546 2.178 2.178 0 011.551-.646h.142a2.237 2.237 0 012 1.073 2.17 2.17 0 010 2.242 2.237 2.237 0 01-2 1.072h-.006zm-21.785 0c-1.245.006-2.266-.97-2.3-2.195a2.11 2.11 0 01.61-1.546 2.178 2.178 0 011.551-.646h.145c1.198.044 2.146 1.013 2.146 2.194 0 1.18-.948 2.15-2.146 2.193h-.006zm65.42-206.966c-1.245.005-2.267-.97-2.3-2.195a2.11 2.11 0 01.61-1.546 2.178 2.178 0 011.55-.646h.146c1.198.044 2.146 1.013 2.146 2.194 0 1.18-.948 2.149-2.146 2.193h-.006zm-21.79 0c-1.244.005-2.266-.97-2.3-2.195a2.11 2.11 0 01.61-1.546 2.178 2.178 0 011.552-.646h.145a2.237 2.237 0 011.999 1.073c.417.69.417 1.55 0 2.241a2.237 2.237 0 01-2 1.073h-.005zm-21.788 0c-1.245.005-2.265-.97-2.297-2.195a2.11 2.11 0 01.61-1.546 2.178 2.178 0 011.55-.646h.143a2.237 2.237 0 011.999 1.073c.417.69.417 1.55 0 2.241a2.237 2.237 0 01-2 1.073h-.005zm-21.79 0c-1.244.005-2.266-.97-2.3-2.195a2.11 2.11 0 01.61-1.546 2.178 2.178 0 011.552-.646h.145a2.237 2.237 0 011.999 1.073c.417.69.417 1.55 0 2.241a2.237 2.237 0 01-2 1.073h-.005zm65.368 114.994c-1.244.005-2.265-.968-2.3-2.192a2.11 2.11 0 01.608-1.548 2.178 2.178 0 011.553-.647h.145c1.198.044 2.146 1.013 2.146 2.194 0 1.18-.948 2.15-2.146 2.193h-.006zm-21.79 0c-1.243.005-2.264-.968-2.3-2.192a2.11 2.11 0 01.609-1.548 2.178 2.178 0 011.553-.647h.145a2.237 2.237 0 011.999 1.073c.417.69.417 1.55 0 2.242a2.237 2.237 0 01-2 1.072h-.005zm-21.788 0c-1.244.005-2.264-.968-2.297-2.192a2.11 2.11 0 01.608-1.548 2.178 2.178 0 011.553-.647h.142a2.237 2.237 0 011.999 1.073c.417.69.417 1.55 0 2.242a2.237 2.237 0 01-2 1.072h-.005zm-21.79 0c-1.243.005-2.264-.968-2.3-2.192a2.11 2.11 0 01.609-1.548 2.178 2.178 0 011.553-.647h.145a2.237 2.237 0 011.999 1.073c.417.69.417 1.55 0 2.242a2.237 2.237 0 01-2 1.072h-.005zm5.675-28.378a2.214 2.214 0 01-2.046-1.333 2.155 2.155 0 01.459-2.373l.052-.049a2.251 2.251 0 013.15 0 2.17 2.17 0 010 3.101c-.43.42-1.01.655-1.615.654zm14.401-14.2a2.209 2.209 0 01-2.032-1.318 2.149 2.149 0 01.433-2.358l.096-.094a2.251 2.251 0 013.149 0c.87.856.87 2.245 0 3.101a2.34 2.34 0 01-1.646.669zm14.433-14.215a2.205 2.205 0 01-2.031-1.317 2.146 2.146 0 01.434-2.356l.096-.094a2.251 2.251 0 013.149 0c.87.856.87 2.245 0 3.101a2.35 2.35 0 01-1.648.666zm14.435-14.212a2.209 2.209 0 01-2.032-1.318 2.149 2.149 0 01.433-2.358l.096-.094a2.254 2.254 0 013.099.052 2.17 2.17 0 01.05 3.052 2.353 2.353 0 01-1.646.666zm14.426-14.185a2.214 2.214 0 01-2.054-1.345 2.156 2.156 0 01.486-2.382l.052-.049a2.251 2.251 0 013.15.043 2.17 2.17 0 01-.044 3.1 2.3 2.3 0 01-1.59.633zm-59.671 161.023a2.218 2.218 0 01-2.044-1.333 2.158 2.158 0 01.454-2.373l.052-.049a2.251 2.251 0 013.15 0 2.17 2.17 0 010 3.101 2.29 2.29 0 01-1.612.654zm14.404-14.203a2.206 2.206 0 01-2.033-1.315 2.146 2.146 0 01.434-2.357l.096-.095a2.251 2.251 0 013.149 0c.87.857.87 2.245 0 3.101a2.337 2.337 0 01-1.646.666zm14.433-14.212a2.209 2.209 0 01-2.032-1.318 2.149 2.149 0 01.433-2.357l.095-.095a2.251 2.251 0 012.18-.627 2.212 2.212 0 011.608 1.58c.202.777-.042 1.6-.636 2.148a2.352 2.352 0 01-1.651.675l.003-.006zm14.435-14.215a2.206 2.206 0 01-2.036-1.316 2.146 2.146 0 01.437-2.36l.096-.09a2.251 2.251 0 013.149 0c.87.856.87 2.244 0 3.1a2.35 2.35 0 01-1.649.666h.003zm14.42-14.182a2.214 2.214 0 01-2.042-1.332 2.155 2.155 0 01.456-2.37l.052-.052a2.25 2.25 0 012.15-.568 2.21 2.21 0 011.575 1.55 2.17 2.17 0 01-.576 2.119c-.429.42-1.01.655-1.615.653zm71.508 50.033c-1.23 0-2.228-.981-2.23-2.192v-.155c.045-1.18 1.03-2.113 2.228-2.113 1.199 0 2.183.933 2.227 2.113v.155c0 1.21-.996 2.192-2.225 2.192zm0-22.998c-1.23 0-2.228-.98-2.23-2.192v-.155c.045-1.18 1.03-2.113 2.228-2.113 1.199 0 2.183.934 2.227 2.113v.155c0 1.21-.996 2.192-2.225 2.192zm0-22.998c-1.23 0-2.228-.98-2.23-2.191v-.152c.045-1.18 1.03-2.114 2.228-2.114 1.199 0 2.183.934 2.227 2.114v.152c0 1.21-.996 2.191-2.225 2.191zm0-45.992c-1.231 0-2.23-.982-2.23-2.195v-.149a2.187 2.187 0 011.09-1.968 2.259 2.259 0 012.276 0 2.187 2.187 0 011.09 1.968v.15c0 .581-.234 1.14-.651 1.551a2.243 2.243 0 01-1.575.643zm0-22.997c-1.23 0-2.228-.981-2.23-2.192v-.152a2.187 2.187 0 011.09-1.969 2.259 2.259 0 012.276 0 2.187 2.187 0 011.09 1.969v.152c0 .581-.235 1.139-.652 1.55a2.243 2.243 0 01-1.574.642zm0-22.998c-1.23 0-2.228-.98-2.23-2.192v-.152c.045-1.18 1.03-2.113 2.228-2.113 1.199 0 2.183.934 2.227 2.113v.152c0 .582-.234 1.139-.651 1.55a2.243 2.243 0 01-1.574.642zm0-22.995c-1.231 0-2.23-.982-2.23-2.194v-.152c.045-1.18 1.03-2.114 2.228-2.114 1.199 0 2.183.934 2.227 2.114v.152a2.174 2.174 0 01-.65 1.551 2.243 2.243 0 01-1.575.643zm109.003 160.978c-1.23 0-2.227-.981-2.229-2.192v-.155c.045-1.18 1.03-2.113 2.228-2.113 1.199 0 2.183.933 2.227 2.113v.155c0 1.21-.996 2.192-2.226 2.192zm0-22.998c-1.23 0-2.227-.98-2.229-2.192v-.155c.045-1.18 1.03-2.113 2.228-2.113 1.199 0 2.183.934 2.227 2.113v.155c0 1.21-.996 2.192-2.226 2.192zm0-22.998c-1.23 0-2.227-.98-2.229-2.191v-.152c.045-1.18 1.03-2.114 2.228-2.114 1.199 0 2.183.934 2.227 2.114v.152c0 1.21-.996 2.191-2.226 2.191zm0-45.992c-1.23 0-2.229-.982-2.229-2.195v-.149a2.187 2.187 0 011.09-1.968 2.259 2.259 0 012.276 0 2.187 2.187 0 011.09 1.968v.15c0 .581-.234 1.14-.652 1.551a2.243 2.243 0 01-1.575.643zm0-22.997c-1.23 0-2.227-.981-2.229-2.192v-.152a2.187 2.187 0 011.09-1.969 2.259 2.259 0 012.276 0 2.187 2.187 0 011.09 1.969v.152c0 .581-.235 1.139-.653 1.55a2.243 2.243 0 01-1.574.642zm0-22.998c-1.23 0-2.227-.98-2.229-2.192v-.152c.045-1.18 1.03-2.113 2.228-2.113 1.199 0 2.183.934 2.227 2.113v.152c0 .582-.234 1.139-.652 1.55a2.243 2.243 0 01-1.574.642zm0-22.995c-1.23 0-2.229-.982-2.229-2.194v-.152c.045-1.18 1.03-2.114 2.228-2.114 1.199 0 2.183.934 2.227 2.114v.152a2.174 2.174 0 01-.65 1.551 2.243 2.243 0 01-1.576.643zM459.07 552.652c-1.245.006-2.265-.97-2.297-2.195a2.11 2.11 0 01.61-1.546 2.178 2.178 0 011.55-.646h.143a2.237 2.237 0 012 1.073 2.17 2.17 0 010 2.242 2.237 2.237 0 01-2 1.072h-.006zm-21.786 0c-1.245.006-2.267-.97-2.3-2.195a2.11 2.11 0 01.61-1.546 2.178 2.178 0 011.55-.646h.146c1.198.044 2.146 1.013 2.146 2.194 0 1.18-.948 2.15-2.146 2.193h-.006zm-21.79 0c-1.244.006-2.266-.97-2.3-2.195a2.11 2.11 0 01.61-1.546 2.178 2.178 0 011.552-.646h.145c1.198.044 2.146 1.013 2.146 2.194 0 1.18-.948 2.15-2.146 2.193h-.006zm-21.788 0c-1.245.006-2.267-.97-2.3-2.195a2.11 2.11 0 01.61-1.546 2.178 2.178 0 011.55-.646h.146c1.198.044 2.146 1.013 2.146 2.194 0 1.18-.948 2.15-2.146 2.193h-.006zm65.42-206.966c-1.246.005-2.267-.97-2.3-2.195a2.11 2.11 0 01.609-1.546 2.178 2.178 0 011.551-.646h.142a2.237 2.237 0 012 1.073c.416.69.416 1.55 0 2.241a2.237 2.237 0 01-2 1.073h-.003zm-21.787 0c-1.245.005-2.266-.97-2.3-2.195a2.11 2.11 0 01.61-1.546 2.178 2.178 0 011.551-.646h.146c1.197.044 2.146 1.013 2.146 2.194 0 1.18-.949 2.149-2.146 2.193h-.007zm-21.792 0c-1.244.005-2.265-.97-2.297-2.195a2.11 2.11 0 01.61-1.546 2.178 2.178 0 011.551-.646h.142a2.237 2.237 0 012 1.073c.416.69.416 1.55 0 2.241a2.237 2.237 0 01-2 1.073h-.006zm-21.786 0c-1.245.005-2.266-.97-2.3-2.195a2.11 2.11 0 01.61-1.546 2.178 2.178 0 011.551-.646h.146c1.197.044 2.145 1.013 2.145 2.194 0 1.18-.948 2.149-2.145 2.193h-.007zm65.364 114.994c-1.244.005-2.264-.968-2.3-2.192a2.11 2.11 0 01.609-1.548 2.178 2.178 0 011.552-.647h.142a2.237 2.237 0 012 1.073 2.17 2.17 0 010 2.242 2.237 2.237 0 01-2 1.072h-.003zm-21.786 0c-1.244.007-2.266-.967-2.3-2.192a2.11 2.11 0 01.609-1.548 2.178 2.178 0 011.552-.647h.146c1.197.044 2.146 1.013 2.146 2.194 0 1.18-.949 2.15-2.146 2.193h-.007zm-21.792 0c-1.243.005-2.263-.968-2.297-2.192a2.11 2.11 0 01.609-1.548 2.178 2.178 0 011.552-.647h.142a2.237 2.237 0 012 1.073 2.17 2.17 0 010 2.242 2.237 2.237 0 01-2 1.072h-.006zm-21.786 0c-1.244.007-2.266-.967-2.3-2.192a2.11 2.11 0 01.609-1.548 2.178 2.178 0 011.552-.647h.146c1.197.044 2.145 1.013 2.145 2.194 0 1.18-.948 2.15-2.145 2.193h-.007zm5.674-28.378a2.218 2.218 0 01-2.043-1.334 2.158 2.158 0 01.454-2.372l.052-.049a2.251 2.251 0 013.149 0c.87.856.87 2.245 0 3.101a2.29 2.29 0 01-1.612.654zm14.399-14.2a2.205 2.205 0 01-2.034-1.317 2.146 2.146 0 01.438-2.359l.096-.094a2.251 2.251 0 013.148 0c.87.856.87 2.245 0 3.101a2.35 2.35 0 01-1.648.669zm14.435-14.215a2.206 2.206 0 01-2.033-1.315 2.146 2.146 0 01.434-2.358l.096-.094a2.25 2.25 0 012.15-.567 2.21 2.21 0 011.575 1.55 2.17 2.17 0 01-.576 2.118 2.337 2.337 0 01-1.646.666zm14.436-14.212a2.206 2.206 0 01-2.037-1.316 2.146 2.146 0 01.438-2.36l.092-.094a2.254 2.254 0 013.135.017c.864.85.871 2.227.017 3.087a2.362 2.362 0 01-1.645.666zm14.423-14.185a2.214 2.214 0 01-2.054-1.345 2.156 2.156 0 01.486-2.382l.055-.049a2.251 2.251 0 012.159-.538 2.209 2.209 0 011.553 1.572 2.17 2.17 0 01-.606 2.11 2.306 2.306 0 01-1.593.632zm-59.671 161.023a2.214 2.214 0 01-2.046-1.333 2.155 2.155 0 01.459-2.373l.052-.049a2.251 2.251 0 013.15 0 2.17 2.17 0 010 3.101 2.3 2.3 0 01-1.615.654zm14.401-14.203a2.206 2.206 0 01-2.033-1.315 2.146 2.146 0 01.434-2.357l.096-.095a2.251 2.251 0 012.18-.627 2.212 2.212 0 011.607 1.58c.202.777-.041 1.6-.635 2.148a2.35 2.35 0 01-1.649.666zm14.432-14.212a2.205 2.205 0 01-2.034-1.317 2.146 2.146 0 01.438-2.358l.096-.095a2.251 2.251 0 013.149 0c.87.857.87 2.245 0 3.101a2.352 2.352 0 01-1.649.675v-.006zm14.436-14.215a2.205 2.205 0 01-2.034-1.317 2.146 2.146 0 01.438-2.358l.093-.092a2.251 2.251 0 013.148 0c.87.857.87 2.245 0 3.101a2.337 2.337 0 01-1.639.666h-.006zm14.423-14.182a2.214 2.214 0 01-2.043-1.332 2.155 2.155 0 01.456-2.37l.053-.052a2.251 2.251 0 013.149 0c.87.856.87 2.244 0 3.1-.43.421-1.01.656-1.615.654zm71.507 50.033c-1.229 0-2.225-.982-2.225-2.192v-.155c.044-1.18 1.028-2.113 2.227-2.113 1.199 0 2.183.933 2.227 2.113v.155c0 .582-.235 1.14-.653 1.55a2.244 2.244 0 01-1.576.642zm0-22.998c-1.229 0-2.225-.981-2.225-2.192v-.155c.044-1.18 1.028-2.113 2.227-2.113 1.199 0 2.183.934 2.227 2.113v.155c0 .582-.235 1.14-.653 1.551a2.244 2.244 0 01-1.576.641zm0-22.998c-1.229 0-2.225-.98-2.225-2.191v-.152c.044-1.18 1.028-2.114 2.227-2.114 1.199 0 2.183.934 2.227 2.114v.152c0 .581-.235 1.14-.653 1.55a2.244 2.244 0 01-1.576.641zm0-45.992c-.59 0-1.157-.231-1.575-.643a2.175 2.175 0 01-.65-1.552v-.149a2.187 2.187 0 011.089-1.968 2.259 2.259 0 012.276 0 2.187 2.187 0 011.09 1.968v.15c0 1.212-.999 2.194-2.23 2.194zm0-22.997c-1.229 0-2.225-.982-2.225-2.192v-.152a2.187 2.187 0 011.089-1.969 2.259 2.259 0 012.276 0 2.187 2.187 0 011.09 1.969v.152c0 .582-.236 1.14-.654 1.55a2.244 2.244 0 01-1.576.642zm0-22.998c-1.229 0-2.225-.981-2.225-2.192v-.152c.044-1.18 1.028-2.113 2.227-2.113 1.199 0 2.183.934 2.227 2.113v.152c0 .582-.235 1.14-.653 1.551a2.244 2.244 0 01-1.576.641zm0-22.995a2.24 2.24 0 01-1.575-.643 2.175 2.175 0 01-.65-1.551v-.152c.044-1.18 1.028-2.114 2.227-2.114 1.199 0 2.183.934 2.227 2.114v.152c0 1.212-.998 2.194-2.229 2.194zM635.66 529.734c-1.23 0-2.226-.982-2.226-2.192v-.155c.045-1.18 1.029-2.113 2.228-2.113 1.198 0 2.182.933 2.227 2.113v.155c0 .582-.235 1.14-.653 1.55a2.244 2.244 0 01-1.576.642zm0-22.998c-1.23 0-2.226-.981-2.226-2.192v-.155c.045-1.18 1.029-2.113 2.228-2.113 1.198 0 2.182.934 2.227 2.113v.155c0 .582-.235 1.14-.653 1.551a2.244 2.244 0 01-1.576.641zm0-22.998c-1.23 0-2.226-.98-2.226-2.191v-.152c.045-1.18 1.029-2.114 2.228-2.114 1.198 0 2.182.934 2.227 2.114v.152c0 .581-.235 1.14-.653 1.55a2.244 2.244 0 01-1.576.641zm0-45.992c-.59 0-1.157-.231-1.575-.643a2.175 2.175 0 01-.65-1.552v-.149a2.187 2.187 0 011.088-1.968 2.259 2.259 0 012.277 0 2.187 2.187 0 011.089 1.968v.15c0 1.212-.998 2.194-2.229 2.194zm0-22.997c-1.23 0-2.226-.982-2.226-2.192v-.152a2.187 2.187 0 011.09-1.969 2.259 2.259 0 012.276 0 2.187 2.187 0 011.089 1.969v.152c0 .582-.235 1.14-.653 1.55a2.244 2.244 0 01-1.576.642zm0-22.998c-1.23 0-2.226-.981-2.226-2.192v-.152c.045-1.18 1.029-2.113 2.228-2.113 1.198 0 2.182.934 2.227 2.113v.152c0 .582-.235 1.14-.653 1.551a2.244 2.244 0 01-1.576.641zm0-22.995a2.24 2.24 0 01-1.575-.643 2.175 2.175 0 01-.65-1.551v-.152c.044-1.18 1.028-2.114 2.227-2.114 1.198 0 2.182.934 2.227 2.114v.152c0 1.212-.998 2.194-2.229 2.194zm-21.773 183.896c-1.245.006-2.267-.97-2.3-2.195a2.11 2.11 0 01.61-1.546 2.178 2.178 0 011.55-.646h.146c1.198.044 2.146 1.013 2.146 2.194 0 1.18-.948 2.15-2.146 2.193h-.006zm-21.79 0c-1.244.006-2.266-.97-2.3-2.195a2.11 2.11 0 01.61-1.546 2.178 2.178 0 011.552-.646h.145a2.237 2.237 0 011.999 1.073c.417.69.417 1.55 0 2.242a2.237 2.237 0 01-2 1.072h-.005zm-21.788 0c-1.245.006-2.265-.97-2.297-2.195a2.11 2.11 0 01.61-1.546 2.178 2.178 0 011.55-.646h.143a2.237 2.237 0 011.999 1.073c.417.69.417 1.55 0 2.242a2.237 2.237 0 01-2 1.072h-.005zm-21.79 0c-1.244.006-2.266-.97-2.3-2.195a2.11 2.11 0 01.61-1.546 2.178 2.178 0 011.552-.646h.145a2.237 2.237 0 011.999 1.073c.417.69.417 1.55 0 2.242a2.237 2.237 0 01-2 1.072h-.005zm65.423-206.966c-1.245.005-2.266-.97-2.3-2.195a2.11 2.11 0 01.61-1.546 2.178 2.178 0 011.551-.646h.145c1.198.044 2.146 1.013 2.146 2.194 0 1.18-.948 2.149-2.146 2.193h-.006zm-21.789 0c-1.245.005-2.266-.97-2.3-2.195a2.11 2.11 0 01.61-1.546 2.178 2.178 0 011.551-.646h.145a2.237 2.237 0 012 1.073c.416.69.416 1.55 0 2.241a2.237 2.237 0 01-2 1.073h-.006zm-21.789 0c-1.245.005-2.266-.97-2.3-2.195a2.11 2.11 0 01.61-1.546 2.178 2.178 0 011.551-.646h.145c1.198.044 2.146 1.013 2.146 2.194 0 1.18-.948 2.149-2.146 2.193h-.006zm-21.789 0c-1.245.005-2.266-.97-2.3-2.195a2.11 2.11 0 01.61-1.546 2.178 2.178 0 011.551-.646h.145a2.237 2.237 0 012 1.073c.416.69.416 1.55 0 2.241a2.237 2.237 0 01-2 1.073h-.006zm65.367 114.994c-1.244.007-2.266-.967-2.3-2.192a2.11 2.11 0 01.609-1.548 2.178 2.178 0 011.552-.647h.145c1.198.044 2.146 1.013 2.146 2.194 0 1.18-.948 2.15-2.146 2.193h-.006zm-21.789 0c-1.244.005-2.265-.968-2.3-2.192a2.11 2.11 0 01.609-1.548 2.178 2.178 0 011.552-.647h.145a2.237 2.237 0 012 1.073 2.17 2.17 0 010 2.242 2.237 2.237 0 01-2 1.072h-.006zm-21.789 0c-1.244.005-2.265-.968-2.3-2.192a2.11 2.11 0 01.609-1.548 2.178 2.178 0 011.552-.647h.145c1.198.044 2.146 1.013 2.146 2.194 0 1.18-.948 2.15-2.146 2.193h-.006zm-21.789 0c-1.244.005-2.265-.968-2.3-2.192a2.11 2.11 0 01.609-1.548 2.178 2.178 0 011.552-.647h.145a2.237 2.237 0 012 1.073 2.17 2.17 0 010 2.242 2.237 2.237 0 01-2 1.072h-.006zm5.674-28.378a2.214 2.214 0 01-2.046-1.333 2.155 2.155 0 01.46-2.373l.052-.049a2.251 2.251 0 013.149 0c.87.856.87 2.245 0 3.101-.429.42-1.01.655-1.615.654zm14.402-14.2a2.209 2.209 0 01-2.033-1.318 2.149 2.149 0 01.434-2.358l.095-.094a2.251 2.251 0 013.15 0 2.17 2.17 0 010 3.101 2.34 2.34 0 01-1.646.669zm14.432-14.215a2.206 2.206 0 01-2.033-1.315 2.146 2.146 0 01.434-2.358l.096-.094a2.251 2.251 0 012.18-.627 2.212 2.212 0 011.607 1.58c.202.777-.041 1.6-.635 2.148a2.35 2.35 0 01-1.649.666zm14.436-14.212a2.206 2.206 0 01-2.037-1.316 2.146 2.146 0 01.437-2.36l.096-.094a2.251 2.251 0 012.181-.625 2.21 2.21 0 011.605 1.582 2.17 2.17 0 01-.637 2.147 2.362 2.362 0 01-1.645.666zm14.423-14.185a2.214 2.214 0 01-2.052-1.347 2.156 2.156 0 01.486-2.38l.053-.049a2.251 2.251 0 013.149.043 2.17 2.17 0 01-.043 3.1 2.3 2.3 0 01-1.593.633zM552.27 536.513a2.217 2.217 0 01-2.041-1.335 2.158 2.158 0 01.455-2.371l.052-.049a2.251 2.251 0 013.149 0c.87.857.87 2.245 0 3.101a2.3 2.3 0 01-1.615.654zm14.417-14.203a2.206 2.206 0 01-2.033-1.315 2.146 2.146 0 01.434-2.357l.096-.095a2.251 2.251 0 013.149 0c.87.857.87 2.245 0 3.101a2.35 2.35 0 01-1.646.666zm14.433-14.212a2.209 2.209 0 01-2.033-1.318 2.149 2.149 0 01.434-2.357l.095-.095a2.251 2.251 0 013.15 0 2.17 2.17 0 010 3.101 2.34 2.34 0 01-1.659.675l.013-.006zm14.435-14.215a2.206 2.206 0 01-2.037-1.316 2.146 2.146 0 01.438-2.36l.096-.09a2.251 2.251 0 013.149 0c.87.856.87 2.244 0 3.1a2.35 2.35 0 01-1.658.666h.012zm14.41-14.182a2.214 2.214 0 01-2.042-1.332 2.155 2.155 0 01.456-2.37l.05-.052a2.251 2.251 0 012.18-.628 2.212 2.212 0 011.607 1.581c.202.776-.041 1.6-.636 2.148-.428.42-1.01.655-1.614.653zm71.508 50.033a2.25 2.25 0 01-1.576-.641 2.175 2.175 0 01-.653-1.551v-.155c.045-1.18 1.029-2.113 2.228-2.113 1.198 0 2.182.933 2.227 2.113v.155c0 1.21-.996 2.192-2.226 2.192zm0-22.998c-.59 0-1.158-.23-1.576-.64a2.175 2.175 0 01-.653-1.552v-.155c.045-1.18 1.029-2.113 2.228-2.113 1.198 0 2.182.934 2.227 2.113v.155c0 1.21-.996 2.192-2.226 2.192zm0-22.998a2.248 2.248 0 01-1.576-.64 2.175 2.175 0 01-.653-1.551v-.152c.045-1.18 1.029-2.114 2.228-2.114 1.198 0 2.182.934 2.227 2.114v.152c0 1.21-.996 2.191-2.226 2.191zm0-45.992c-1.23 0-2.229-.982-2.229-2.195v-.149a2.187 2.187 0 011.09-1.968 2.259 2.259 0 012.276 0 2.187 2.187 0 011.09 1.968v.15c0 .581-.234 1.14-.652 1.551a2.243 2.243 0 01-1.575.643zm0-22.997a2.25 2.25 0 01-1.576-.641 2.175 2.175 0 01-.653-1.551v-.152a2.187 2.187 0 011.09-1.969 2.259 2.259 0 012.276 0 2.187 2.187 0 011.09 1.969v.152c0 .581-.235 1.139-.653 1.55a2.243 2.243 0 01-1.574.642zm0-22.998c-.59 0-1.158-.23-1.576-.64a2.175 2.175 0 01-.653-1.552v-.152c.045-1.18 1.029-2.113 2.228-2.113 1.198 0 2.182.934 2.227 2.113v.152c0 .582-.234 1.139-.652 1.55a2.243 2.243 0 01-1.574.642zm0-22.995c-1.23 0-2.229-.982-2.229-2.194v-.152c.045-1.18 1.029-2.114 2.228-2.114 1.198 0 2.182.934 2.227 2.114v.152c0 .581-.233 1.14-.65 1.551a2.243 2.243 0 01-1.576.643zm109.004 160.978a2.25 2.25 0 01-1.576-.641 2.175 2.175 0 01-.653-1.551v-.155c.045-1.18 1.029-2.113 2.227-2.113 1.2 0 2.183.933 2.228 2.113v.155c0 1.21-.997 2.192-2.226 2.192zm0-22.998c-.59 0-1.158-.23-1.576-.64a2.175 2.175 0 01-.653-1.552v-.155c.045-1.18 1.029-2.113 2.227-2.113 1.2 0 2.183.934 2.228 2.113v.155c0 1.21-.997 2.192-2.226 2.192zm0-22.998a2.248 2.248 0 01-1.576-.64 2.175 2.175 0 01-.653-1.551v-.152c.045-1.18 1.029-2.114 2.227-2.114 1.2 0 2.183.934 2.228 2.114v.152c0 1.21-.997 2.191-2.226 2.191zm0-45.992c-1.231 0-2.229-.982-2.229-2.195v-.149a2.187 2.187 0 011.09-1.968 2.259 2.259 0 012.276 0 2.187 2.187 0 011.089 1.968v.15c0 .581-.234 1.14-.651 1.551a2.243 2.243 0 01-1.575.643zm0-22.997a2.25 2.25 0 01-1.576-.641 2.175 2.175 0 01-.653-1.551v-.152a2.187 2.187 0 011.09-1.969 2.259 2.259 0 012.276 0 2.187 2.187 0 011.089 1.969v.152c0 .581-.235 1.139-.652 1.55a2.243 2.243 0 01-1.574.642zm0-22.998c-.59 0-1.158-.23-1.576-.64a2.175 2.175 0 01-.653-1.552v-.152c.045-1.18 1.029-2.113 2.227-2.113 1.2 0 2.183.934 2.228 2.113v.152c0 .582-.235 1.139-.652 1.55a2.243 2.243 0 01-1.574.642zm0-22.995c-1.231 0-2.229-.982-2.229-2.194v-.152c.045-1.18 1.029-2.114 2.227-2.114 1.2 0 2.183.934 2.228 2.114v.152c0 .581-.234 1.14-.651 1.551a2.243 2.243 0 01-1.575.643zM768.7 552.652c-1.245.006-2.266-.97-2.3-2.195a2.11 2.11 0 01.61-1.546 2.178 2.178 0 011.551-.646h.142a2.237 2.237 0 012 1.073 2.17 2.17 0 010 2.242 2.237 2.237 0 01-2 1.072h-.003zm-21.786 0c-1.245.006-2.266-.97-2.3-2.195a2.11 2.11 0 01.61-1.546 2.178 2.178 0 011.551-.646h.146c1.197.044 2.146 1.013 2.146 2.194 0 1.18-.949 2.15-2.146 2.193h-.007zm-21.792 0c-1.244.006-2.265-.97-2.297-2.195a2.11 2.11 0 01.61-1.546 2.178 2.178 0 011.551-.646h.142a2.237 2.237 0 012 1.073 2.17 2.17 0 010 2.242 2.237 2.237 0 01-2 1.072h-.006zm-21.786 0c-1.245.006-2.266-.97-2.3-2.195a2.11 2.11 0 01.61-1.546 2.178 2.178 0 011.551-.646h.146c1.197.044 2.145 1.013 2.145 2.194 0 1.18-.948 2.15-2.145 2.193h-.007zm65.42-206.966c-1.245.005-2.267-.97-2.3-2.195a2.11 2.11 0 01.61-1.546 2.178 2.178 0 011.55-.646h.143a2.237 2.237 0 012 1.073c.416.69.416 1.55 0 2.241a2.237 2.237 0 01-2 1.073h-.003zm-21.79 0c-1.244.005-2.264-.97-2.296-2.195a2.11 2.11 0 01.61-1.546 2.178 2.178 0 011.551-.646h.142a2.237 2.237 0 012 1.073c.416.69.416 1.55 0 2.241a2.237 2.237 0 01-2 1.073h-.006zm-21.788 0c-1.245.005-2.265-.97-2.297-2.195a2.11 2.11 0 01.61-1.546 2.178 2.178 0 011.551-.646h.142a2.237 2.237 0 012 1.073c.416.69.416 1.55 0 2.241a2.237 2.237 0 01-2 1.073h-.006zm-21.786 0c-1.245.005-2.266-.97-2.3-2.195a2.11 2.11 0 01.61-1.546 2.178 2.178 0 011.551-.646h.145c1.198.044 2.146 1.013 2.146 2.194 0 1.18-.948 2.149-2.146 2.193h-.006zm65.364 114.994c-1.244.005-2.265-.968-2.3-2.192a2.11 2.11 0 01.608-1.548 2.178 2.178 0 011.553-.647h.142a2.237 2.237 0 012 1.073 2.17 2.17 0 010 2.242 2.237 2.237 0 01-2 1.072h-.003zm-21.79 0c-1.242.005-2.262-.968-2.296-2.192a2.11 2.11 0 01.608-1.548 2.178 2.178 0 011.553-.647h.142a2.237 2.237 0 012 1.073 2.17 2.17 0 010 2.242 2.237 2.237 0 01-2 1.072h-.006zm-21.788 0c-1.243.005-2.263-.968-2.297-2.192a2.11 2.11 0 01.608-1.548 2.178 2.178 0 011.553-.647h.142a2.237 2.237 0 012 1.073 2.17 2.17 0 010 2.242 2.237 2.237 0 01-2 1.072h-.006zm-21.786 0c-1.245.007-2.266-.967-2.3-2.192a2.11 2.11 0 01.608-1.548 2.178 2.178 0 011.553-.647h.145c1.198.044 2.146 1.013 2.146 2.194 0 1.18-.948 2.15-2.146 2.193h-.006zm5.674-28.378a2.218 2.218 0 01-2.044-1.334 2.158 2.158 0 01.454-2.372l.053-.049a2.25 2.25 0 012.15-.567 2.21 2.21 0 011.575 1.55 2.17 2.17 0 01-.576 2.118 2.29 2.29 0 01-1.612.654zm14.398-14.2a2.205 2.205 0 01-2.034-1.317 2.146 2.146 0 01.438-2.359l.096-.094a2.251 2.251 0 013.149 0c.87.856.87 2.245 0 3.101a2.35 2.35 0 01-1.649.669zm14.436-14.215a2.206 2.206 0 01-2.034-1.315 2.146 2.146 0 01.435-2.358l.095-.094a2.251 2.251 0 013.15 0 2.17 2.17 0 010 3.101 2.35 2.35 0 01-1.646.666zm14.432-14.212a2.205 2.205 0 01-2.034-1.317 2.146 2.146 0 01.438-2.359l.093-.094a2.254 2.254 0 013.099.052 2.17 2.17 0 01.05 3.052 2.353 2.353 0 01-1.646.666zm14.426-14.185a2.214 2.214 0 01-2.054-1.345 2.156 2.156 0 01.486-2.382l.056-.049a2.251 2.251 0 013.149.043 2.17 2.17 0 01-.044 3.1 2.313 2.313 0 01-1.593.633zm-59.67 161.023a2.214 2.214 0 01-2.047-1.333 2.155 2.155 0 01.46-2.373l.049-.049a2.254 2.254 0 013.099.05 2.17 2.17 0 01.053 3.051 2.3 2.3 0 01-1.615.654zm14.4-14.203a2.206 2.206 0 01-2.033-1.315 2.146 2.146 0 01.435-2.357l.095-.095a2.254 2.254 0 013.1.05 2.17 2.17 0 01.052 3.051 2.35 2.35 0 01-1.648.666zm14.433-14.212a2.205 2.205 0 01-2.034-1.317 2.146 2.146 0 01.438-2.358l.096-.095a2.251 2.251 0 013.149 0c.87.857.87 2.245 0 3.101a2.352 2.352 0 01-1.649.675v-.006zm14.436-14.215a2.205 2.205 0 01-2.035-1.317 2.146 2.146 0 01.438-2.358l.093-.092a2.251 2.251 0 013.149 0c.87.857.87 2.245 0 3.101a2.337 2.337 0 01-1.63.666h-.015zm14.423-14.182a2.214 2.214 0 01-2.043-1.332 2.155 2.155 0 01.456-2.37l.052-.052a2.251 2.251 0 013.15 0 2.169 2.169 0 010 3.1c-.43.421-1.01.656-1.615.654z" fill="#BBBBBA"/><path d="M671.547 291h127.906c.854 0 1.547.693 1.547 1.547v18.906c0 .854-.693 1.547-1.547 1.547H671.547a1.547 1.547 0 01-1.547-1.547v-18.906c0-.854.693-1.547 1.547-1.547zm-309 0h127.906c.854 0 1.547.693 1.547 1.547v18.906c0 .854-.693 1.547-1.547 1.547H362.547a1.547 1.547 0 01-1.547-1.547v-18.906c0-.854.693-1.547 1.547-1.547zm155 0h127.906c.854 0 1.547.693 1.547 1.547v18.906c0 .854-.693 1.547-1.547 1.547H517.547a1.547 1.547 0 01-1.547-1.547v-18.906c0-.854.693-1.547 1.547-1.547zm-310 0h127.906c.854 0 1.547.693 1.547 1.547v18.906c0 .854-.693 1.547-1.547 1.547H207.547a1.547 1.547 0 01-1.547-1.547v-18.906c0-.854.693-1.547 1.547-1.547zm-154 0h127.906c.854 0 1.547.693 1.547 1.547v18.906c0 .854-.693 1.547-1.547 1.547H53.547A1.547 1.547 0 0152 311.453v-18.906c0-.854.693-1.547 1.547-1.547zm739.806 43.49h3.681c1.226 0 2.219.993 2.219 2.218v220.539a2.218 2.218 0 01-2.219 2.218H674.31a2.218 2.218 0 01-2.219-2.218v-220.54c0-1.224.994-2.217 2.219-2.217h119.044zm-12.389 18.009H690.38v188.957h90.585V352.499zm-141.995-18.01h3.68a2.22 2.22 0 012.22 2.219v220.539a2.218 2.218 0 01-2.22 2.218H519.925a2.218 2.218 0 01-2.218-2.218v-220.54c0-1.224.993-2.217 2.218-2.217H638.97zm-12.39 18.01h-90.585v188.957h90.586V352.499zm-142.57-18.01h3.682c1.225 0 2.218.994 2.218 2.219v220.539a2.218 2.218 0 01-2.218 2.218H364.965a2.218 2.218 0 01-2.218-2.218v-220.54c0-1.224.993-2.217 2.218-2.217H484.01zm-12.388 18.01h-90.586v188.957h90.586V352.499zM316.869 467.477H226.28v73.979h90.589v-73.979zm0-18.009v-96.97H226.28v96.97h90.589zm12.386-114.978h3.684c1.225 0 2.218.993 2.218 2.218v220.539a2.218 2.218 0 01-2.218 2.218H210.21a2.218 2.218 0 01-2.218-2.218v-220.54c0-1.224.993-2.217 2.218-2.217h119.045zm-161.363 0a1.68 1.68 0 01.37 0h9.839c1.225 0 2.218.993 2.218 2.218v220.539a2.218 2.218 0 01-2.218 2.218h-13.852a2.218 2.218 0 01-2.218-2.218v-192.02l-71.104 70.02a1.67 1.67 0 01-2.344 0l-10.551-10.392a1.67 1.67 0 010-2.38l83.999-82.716v-3.051c0-1.225.993-2.218 2.218-2.218h3.643z" fill="#262B36"/></g></svg>